<svg width="104" height="104" viewBox="0 0 104 104" fill="none" xmlns="http://www.w3.org/2000/svg">
<circle cx="51.6631" cy="52.337" r="51.6631" fill="black"/>
<path d="M80.1686 48.0428C79.6154 44.8343 77.0339 42.9904 73.7885 42.9904C69.3999 42.9904 66.339 46.3464 66.339 52.3945C66.339 58.5164 69.4368 61.7987 73.7885 61.7987C76.9601 61.7987 79.5416 60.0285 80.1686 56.8938H84.9997C84.2621 62.0199 80.0579 66.1135 73.7148 66.1135C66.6709 66.1135 61.5078 60.9873 61.5078 52.3945C61.5078 43.7648 66.7446 38.6755 73.7148 38.6755C79.6154 38.6755 84.1884 42.1053 84.9997 48.0428H80.1686Z" fill="white"/>
<path d="M38.8779 43.0642V39.0444H60.1571V43.0642H51.9331V65.7448H47.1388V43.0642H38.8779Z" fill="white"/>
<path d="M18.6445 65.7448V39.0444H36.0145V43.0642H23.4388V50.3663H35.0926V54.3861H23.4388V61.6881H36.0883V65.7448H18.6445Z" fill="white"/>
</svg>
