<svg width="100" height="100" viewBox="0 0 100 100" fill="none" xmlns="http://www.w3.org/2000/svg">
<circle cx="50" cy="50" r="50" fill="#5D2719"/>
<path d="M52.3004 37.4693C55.7228 37.4693 58.5032 34.6972 58.5032 31.2848C58.5032 27.8725 55.7228 25.1003 52.3004 25.1003C48.878 25.1003 46.0977 27.8725 46.0977 31.2848C46.0977 34.6972 48.878 37.4693 52.3004 37.4693ZM52.3004 28.0547C54.0881 28.0547 55.5401 29.5024 55.5401 31.2848C55.5401 33.0673 54.0881 34.515 52.3004 34.515C50.5127 34.515 49.0608 33.0673 49.0608 31.2848C49.0608 29.5024 50.5127 28.0547 52.3004 28.0547Z" fill="white"/>
<path d="M68.454 47.081H63.4464V42.3638H59.6388C63.239 39.9855 65.6243 35.9085 65.6243 31.2849C65.6243 23.958 59.6487 18 52.3002 18C45.9937 18 40.6997 22.3922 39.3268 28.2714C37.4847 26.2378 34.8278 24.9526 31.8696 24.9526C26.3188 24.9526 21.8 29.4581 21.8 34.9926C21.8 37.9027 23.0594 40.5222 25.0496 42.3589H21V71.7845H63.4464V66.4469H68.4343L77.4322 71.5875L79.6496 70.3073V43.5554L77.4668 42.2555L68.454 47.076V47.081ZM52.3002 20.9593C58.014 20.9593 62.6612 25.5928 62.6612 31.2898C62.6612 36.9868 58.014 41.6203 52.3002 41.6203C46.5864 41.6203 41.9392 36.9868 41.9392 31.2898C41.9392 25.5928 46.5864 20.9593 52.3002 20.9593ZM31.8696 27.9119C35.7908 27.9119 38.9761 31.0928 38.9761 34.9975C38.9761 38.9022 35.7859 42.0831 31.8696 42.0831C27.9534 42.0831 24.7631 38.9022 24.7631 34.9975C24.7631 31.0928 27.9534 27.9119 31.8696 27.9119ZM41.233 38.6708C42.2158 40.1332 43.485 41.3888 44.9616 42.3638H38.6897C39.7959 41.3445 40.6701 40.0889 41.233 38.6708ZM60.4833 68.835H23.9631V45.3182H60.4833V68.835ZM63.4464 50.0353H67.3478V63.4975H63.4464V50.0353ZM76.6865 67.7665L70.306 64.1228V49.4445L76.6865 46.0322V67.7665Z" fill="white"/>
<path d="M27.1641 65.6984H51.6936V54.4028H27.1641V65.6984ZM30.1272 57.3572H48.7305V62.744H30.1272V57.3572Z" fill="white"/>
<path d="M55.8994 51.0497C56.7142 51.0497 57.3711 50.3899 57.3711 49.5823C57.3711 48.7748 56.7093 48.115 55.8994 48.115C55.0895 48.115 54.4277 48.7748 54.4277 49.5823C54.4277 50.3899 55.0895 51.0497 55.8994 51.0497Z" fill="white"/>
<path d="M57.417 52.8568H54.3848V55.8801H57.417V52.8568Z" fill="white"/>
</svg>
