<svg width="12" height="11" viewBox="0 0 12 11" fill="none" xmlns="http://www.w3.org/2000/svg">
<path d="M4.75 2.08331H1H4.75Z" fill="#888888"/>
<path d="M4.75 2.08331H1" stroke="#888888" stroke-linecap="round"/>
<path d="M7.25 2.08331H11H7.25Z" fill="#888888"/>
<path d="M7.25 2.08331H11" stroke="#888888" stroke-linecap="round"/>
<path d="M8.5 5.48608H1H8.5Z" fill="#888888"/>
<path d="M8.5 5.48608H1" stroke="#888888" stroke-linecap="round"/>
<path d="M3.5 8.88885H11H3.5Z" fill="#888888"/>
<path d="M3.5 8.88885H11" stroke="#888888" stroke-linecap="round"/>
<path d="M3.5 8.88885C3.5 8.35189 2.94036 7.91663 2.25 7.91663C1.55964 7.91663 1 8.35189 1 8.88885C1 9.42581 1.55964 9.86107 2.25 9.86107C2.94036 9.86107 3.5 9.42581 3.5 8.88885Z" fill="#888888" stroke="#888888" stroke-linecap="round"/>
<path d="M11 5.48608C11 4.94912 10.4404 4.51385 9.75 4.51385C9.05963 4.51385 8.5 4.94912 8.5 5.48608C8.5 6.02304 9.05963 6.4583 9.75 6.4583C10.4404 6.4583 11 6.02304 11 5.48608Z" fill="#888888" stroke="#888888" stroke-linecap="round"/>
<path d="M7.25 2.08331C7.25 1.54636 6.69037 1.11108 6 1.11108C5.30963 1.11108 4.75 1.54636 4.75 2.08331C4.75 2.62025 5.30963 3.05553 6 3.05553C6.69037 3.05553 7.25 2.62025 7.25 2.08331Z" fill="#888888" stroke="#888888" stroke-linecap="round"/>
</svg>
