<svg width="100" height="100" viewBox="0 0 100 100" fill="none" xmlns="http://www.w3.org/2000/svg">
<circle cx="50" cy="50" r="50" fill="#00C3A2"/>
<path d="M52.3176 25.3198C55.0585 24.655 57.103 22.1832 57.103 19.2485C57.103 15.8017 54.293 13 50.8361 13C47.3791 13 44.5691 15.8017 44.5691 19.2485H47.5322C47.5322 17.4316 49.0138 15.9544 50.8361 15.9544C52.6584 15.9544 54.1399 17.4316 54.1399 19.2485C54.1399 21.0655 52.6584 22.5426 50.8361 22.5426H49.3545V29.4461L19.4914 40.1458V47.256H58.5006C57.8635 48.7283 56.2289 49.5555 54.6288 49.137L53.1967 48.7579L51.4287 55.4348L19.8174 58.1922L18 65.066L78.6151 81L80.4325 74.1261L54.293 56.1881L55.3499 52.1997C58.1697 52.2637 60.7773 50.3828 61.5279 47.5466C61.5526 47.4481 61.5674 47.3545 61.5872 47.256H82.1708V40.1458L52.3077 29.4461V25.3198H52.3176ZM76.5113 77.3907L21.6249 62.9635L22.1582 60.9545L52.1991 58.335L77.0397 75.3818L76.5064 77.3907H76.5113ZM52.6189 44.3017C52.9003 43.8142 53.3053 43.4006 53.809 43.1101C54.5696 42.6669 55.4585 42.5487 56.3129 42.7703C57.1968 43.0017 57.8981 43.5729 58.3228 44.3017H52.6139H52.6189ZM79.2176 44.3017H61.5082C60.9303 42.2287 59.3056 40.5004 57.0734 39.9144C55.4585 39.486 53.7695 39.7175 52.3226 40.5595C50.8953 41.3867 49.8731 42.7161 49.4385 44.3017H22.4595V42.2237L50.841 32.0558L79.2226 42.2237V44.3017H79.2176Z" fill="white"/>
</svg>
