<svg width="100" height="100" viewBox="0 0 100 100" fill="none" xmlns="http://www.w3.org/2000/svg">
<circle cx="50" cy="50" r="50" fill="#FB2100"/>
<path d="M78.6941 44.7121C77.6126 33.2294 68.2443 24.1201 56.6289 23.4012V19.9544H60.2982V17H50.2188V19.9544H53.6609V23.4012C42.0455 24.1201 32.6772 33.2294 31.5957 44.7121H23.2397L23.2151 46.1647C23.2101 46.5143 23.3039 47.7649 24.7608 49.2471C26.5634 51.0788 30.4104 53.1419 38.4948 54.3532L32.9143 57.0762H18V60.0306H31.492V73.6699H18V76.6243H34.4551V74.4922H56.9648L68.7875 66.2298C70.7679 64.8462 71.9679 62.5762 71.9975 60.1635L72.0272 57.7557C72.042 56.4951 71.3506 55.3479 70.2296 54.7619C70.1357 54.7127 70.0419 54.6782 69.9481 54.6388C79.4646 53.4866 83.8104 51.2363 85.7661 49.2569C87.2229 47.7748 87.3168 46.5241 87.3118 46.1745L87.2871 44.7219H78.6991L78.6941 44.7121ZM55.1474 26.3014C65.8047 26.3014 74.6001 34.3767 75.7162 44.7072H34.5785C35.6946 34.3718 44.495 26.3014 55.1474 26.3014ZM69.0344 60.1192C69.0196 61.5816 68.2887 62.9603 67.0887 63.8023L56.0314 71.5329H34.4551V59.6071L43.0777 55.402H49.3446C50.2681 55.402 51.0188 56.1505 51.0188 57.0712C51.0188 57.992 50.2681 58.7405 49.3446 58.7405H48.0804C45.7247 58.7405 43.8086 60.651 43.8086 62.9997C43.8086 65.3484 45.7247 67.254 48.0804 67.254H54.5301L68.4517 57.3962C68.6097 57.283 68.7579 57.3174 68.8517 57.3667C68.9455 57.4159 69.0591 57.5144 69.0591 57.7114L69.0295 60.1192H69.0344ZM66.743 54.9884L53.5918 64.2996H48.0853C47.3643 64.2996 46.7766 63.7137 46.7766 62.9997C46.7766 62.2857 47.3643 61.6949 48.0853 61.6949H49.3496C51.9077 61.6949 53.9868 59.6219 53.9868 57.0712C53.9868 56.4804 53.8683 55.9141 53.6658 55.3922C54.1498 55.3922 54.6387 55.402 55.1424 55.402H55.3894C59.7599 55.3971 63.5379 55.2346 66.8022 54.9539C66.7825 54.9638 66.7627 54.9736 66.7479 54.9884H66.743ZM80.4868 49.1535C77.02 50.6504 69.8345 52.4378 55.261 52.4476C40.6875 52.4378 33.497 50.6504 30.0351 49.1535C28.8301 48.6316 27.9955 48.1195 27.4227 47.6665H83.0993C82.5264 48.1195 81.6967 48.6316 80.4868 49.1535Z" fill="white"/>
<path d="M41.4932 39.5665C40.6783 39.5665 40.0215 40.2263 40.0215 41.0339C40.0215 41.8414 40.6832 42.5012 41.4932 42.5012C42.3031 42.5012 42.9648 41.8414 42.9648 41.0339C42.9648 40.2263 42.3031 39.5665 41.4932 39.5665Z" fill="white"/>
<path d="M42.1699 36.7697L44.8515 38.0204C44.8762 37.9613 47.5973 32.3431 54.3878 32.3431V29.3887C45.7355 29.3887 42.3131 36.4644 42.1699 36.7648V36.7697Z" fill="white"/>
</svg>
