<svg width="100" height="100" viewBox="0 0 100 100" fill="none" xmlns="http://www.w3.org/2000/svg">
<circle cx="50" cy="50" r="50" fill="#009BDC"/>
<path d="M76.7991 56.8116C75.5447 56.8116 74.3842 57.2055 73.4212 57.8752C71.7223 50.2824 64.9171 44.5903 56.7982 44.5903C48.6793 44.5903 41.8741 50.2824 40.1752 57.8752C39.2172 57.2105 38.0566 56.8116 36.7973 56.8116C33.528 56.8116 30.8711 59.4607 30.8711 62.7204V74.1341H82.7253V62.7204C82.7253 59.4607 80.0684 56.8116 76.7991 56.8116ZM42.7235 61.578C42.7235 53.8425 49.0398 47.5447 56.7982 47.5447C64.5566 47.5447 70.8729 53.8425 70.8729 61.578V62.3166H42.7235V61.578ZM79.7622 71.1798H33.8342V62.7204C33.8342 61.0905 35.1626 59.766 36.7973 59.766C38.4319 59.766 39.7555 61.0856 39.7604 62.7105V65.271V68.2992H42.7235V65.271H70.8729V68.2992H73.836V65.271V62.7204C73.836 61.0905 75.1645 59.766 76.7991 59.766C78.4338 59.766 79.7622 61.0905 79.7622 62.7204V71.1798Z" fill="white"/>
<path d="M27.7509 28.8828C27.7509 25.6133 30.4177 22.9544 33.6969 22.9544C36.4624 22.9544 38.7885 24.8501 39.4502 27.4106C34.571 28.2132 30.8325 32.433 30.8325 37.5244V39.0016H51.4162V37.5244C51.4162 32.3198 47.5098 28.0211 42.4676 27.3613C41.7417 23.1907 38.0921 20 33.7018 20C28.788 20 24.7928 23.9835 24.7928 28.8828V71.1797H21V74.1341H31.5486V71.1797H27.7559V28.8828H27.7509ZM48.3049 36.0472H33.9487C34.6352 32.7235 37.5934 30.2172 41.1244 30.2172C44.6554 30.2172 47.6135 32.7235 48.3 36.0472H48.3049Z" fill="white"/>
</svg>
