<svg width="45" height="45" viewBox="0 0 45 45" fill="none" xmlns="http://www.w3.org/2000/svg">
<path d="M22.5 37.4211C14.781 37.4211 8.49805 31.1387 8.49805 23.4204H11.0247C11.0247 29.7449 16.1707 34.8946 22.5 34.8946C28.8293 34.8946 33.9753 29.7491 33.9753 23.4204H36.502C36.502 31.1387 30.219 37.4211 22.5 37.4211Z" fill="#888888"/>
<path d="M22.5 45C10.094 45 0 34.9069 0 22.4979C0 10.0889 10.094 0 22.5 0C34.906 0 45 10.0931 45 22.4979C45 34.9027 34.906 45 22.5 45ZM22.5 2.52643C11.4837 2.52643 2.52667 11.4869 2.52667 22.4979C2.52667 33.5089 11.4879 42.4736 22.5 42.4736C33.5121 42.4736 42.4733 33.5131 42.4733 22.4979C42.4733 11.4826 33.5121 2.52643 22.5 2.52643Z" fill="#888888"/>
<path d="M16.8091 20.2698C17.8115 20.2698 18.6241 19.4573 18.6241 18.455C18.6241 17.4527 17.8115 16.6401 16.8091 16.6401C15.8067 16.6401 14.9941 17.4527 14.9941 18.455C14.9941 19.4573 15.8067 20.2698 16.8091 20.2698Z" fill="#888888"/>
<path d="M28.19 20.2698C29.1924 20.2698 30.005 19.4573 30.005 18.455C30.005 17.4527 29.1924 16.6401 28.19 16.6401C27.1876 16.6401 26.375 17.4527 26.375 18.455C26.375 19.4573 27.1876 20.2698 28.19 20.2698Z" fill="#888888"/>
</svg>
