<svg width="100" height="100" viewBox="0 0 100 100" fill="none" xmlns="http://www.w3.org/2000/svg">
<circle cx="50" cy="50" r="50" fill="#FF69B1"/>
<path d="M46.4184 33.7809L36.8575 17L34.087 17.7287V43.9735C32.7042 42.8508 30.9412 42.1713 29.0251 42.1713C24.6002 42.1713 21 45.7609 21 50.1728C21 54.5847 24.6002 58.1742 29.0251 58.1742C33.45 58.1742 37.0501 54.5847 37.0501 50.1728V23.3175L43.3813 34.4259L39.1391 40.4578L41.5639 42.1566L46.3444 35.3566L46.4184 33.776V33.7809ZM29.0251 55.2248C26.2348 55.2248 23.9631 52.9597 23.9631 50.1777C23.9631 47.3957 26.2348 45.1306 29.0251 45.1306C31.8153 45.1306 34.087 47.3957 34.087 50.1777C34.087 52.9597 31.8153 55.2248 29.0251 55.2248Z" fill="white"/>
<path d="M55.6574 34.6574L54.8722 35.9622V62.5615C53.4894 61.4388 51.7264 60.7593 49.8102 60.7593C45.3853 60.7593 41.7852 64.3489 41.7852 68.7608C41.7852 73.1727 45.3853 76.7622 49.8102 76.7622C54.2351 76.7622 57.8353 73.1727 57.8353 68.7608V46.1745L73.4113 38.4882V50.4978C72.0285 49.3751 70.2655 48.6956 68.3493 48.6956C63.9244 48.6956 60.3243 52.2852 60.3243 56.6971C60.3243 61.1089 63.9244 64.6985 68.3493 64.6985C72.4977 64.6985 75.9201 61.5422 76.3349 57.5144H76.3744V26.1586L74.1965 24.8538L55.6574 34.6525V34.6574ZM49.8053 73.8078C47.015 73.8078 44.7433 71.5428 44.7433 68.7608C44.7433 65.9787 47.015 63.7137 49.8053 63.7137C52.5955 63.7137 54.8672 65.9787 54.8672 68.7608C54.8672 71.5428 52.5955 73.8078 49.8053 73.8078ZM57.8353 42.8804V36.8485L73.4113 28.6157V35.1941L57.8353 42.8804ZM68.3444 61.7491C65.5541 61.7491 63.2824 59.484 63.2824 56.702C63.2824 53.9199 65.5541 51.6549 68.3444 51.6549C71.1346 51.6549 73.4064 53.9199 73.4064 56.702C73.4064 59.484 71.1346 61.7491 68.3444 61.7491Z" fill="white"/>
</svg>
