<svg width="44" height="43" viewBox="0 0 44 43" fill="none" xmlns="http://www.w3.org/2000/svg">
<path d="M23.1537 37.5078C22.2756 37.043 21.2244 37.043 20.3463 37.5078L11.0925 42.4069C8.81462 43.6128 6.17683 41.5746 6.7691 39.0662L9.0264 29.5058C9.24558 28.5775 9.01025 27.6003 8.3925 26.8735L0.789359 17.9287C-0.793625 16.0663 0.395504 13.194 2.83164 12.9956L13.0745 12.1614C14.1822 12.0711 15.1492 11.3759 15.5876 10.3547L18.9933 2.42152C20.0331 -0.000561476 23.4669 -0.000559568 24.5067 2.42152L27.9124 10.3547C28.3508 11.3759 29.3178 12.0711 30.4255 12.1614L40.6684 12.9956C43.1045 13.194 44.2936 16.0663 42.7106 17.9287L35.1075 26.8735C34.4897 27.6003 34.2544 28.5775 34.4736 29.5058L36.7309 39.0662C37.3232 41.5746 34.6854 43.6128 32.4075 42.4069L23.1537 37.5078Z" fill="#FFEC3E"/>
</svg>
