<svg width="29" height="26" viewBox="0 0 29 26" fill="none" xmlns="http://www.w3.org/2000/svg">
<path d="M0.00484157 7.49711V16.259H1.67355L4.05328 25.183H9.33269L7.1029 16.8225L20.9266 23.7561V0L5.97592 7.49952H0L0.00484157 7.49711ZM1.45589 8.94816H5.42694V14.808H1.45589V8.94816ZM5.16816 23.7344L3.21408 16.4042H5.49224L7.44632 23.7344H5.16816ZM19.478 21.4079L6.87558 15.0861V8.67004L19.478 2.34829V21.4054V21.4079Z" fill="black"/>
<path d="M27.9953 11.1538H22.873V12.6049H27.9953V11.1538Z" fill="black"/>
<path d="M27.549 3.70013L22.7871 5.5874L23.3217 6.93637L28.0836 5.0491L27.549 3.70013Z" fill="black"/>
<path d="M23.321 16.8254L22.7861 18.1743L27.5477 20.0624L28.0825 18.7135L23.321 16.8254Z" fill="black"/>
</svg>
