<svg width="45" height="45" viewBox="0 0 45 45" fill="none" xmlns="http://www.w3.org/2000/svg">
<path d="M22.5 45C10.094 45 0 34.9069 0 22.4979C0 10.0889 10.0898 0 22.5 0C34.9102 0 45 10.0931 45 22.4979C45 34.9027 34.9059 45 22.5 45ZM22.5 2.52643C11.4837 2.52643 2.52667 11.4869 2.52667 22.4979C2.52667 33.5089 11.4879 42.4736 22.5 42.4736C33.5121 42.4736 42.4733 33.5131 42.4733 22.4979C42.4733 11.4826 33.5121 2.52643 22.5 2.52643Z" fill="#888888"/>
<path d="M16.8052 20.2703C17.8076 20.2703 18.6202 19.4577 18.6202 18.4554C18.6202 17.4531 17.8076 16.6406 16.8052 16.6406C15.8028 16.6406 14.9902 17.4531 14.9902 18.4554C14.9902 19.4577 15.8028 20.2703 16.8052 20.2703Z" fill="#888888"/>
<path d="M28.1861 20.2703C29.1885 20.2703 30.0011 19.4577 30.0011 18.4554C30.0011 17.4531 29.1885 16.6406 28.1861 16.6406C27.1837 16.6406 26.3711 17.4531 26.3711 18.4554C26.3711 19.4577 27.1837 20.2703 28.1861 20.2703Z" fill="#888888"/>
<path d="M34.6291 26.0728H10.373V28.5992H34.6291V26.0728Z" fill="#888888"/>
</svg>
