<svg width="29" height="23" viewBox="0 0 29 23" fill="none" xmlns="http://www.w3.org/2000/svg">
<path d="M23.4747 0H22.0058V1.68293H17.4989V0H16.0301V1.68293H11.5231V0H10.0543V1.68293H5.11894V2.40833C5.11894 2.74443 5.12139 3.08778 5.12629 3.43839C5.16301 7.26125 5.20707 12.0175 0.876414 17.7457L0 18.9063H5.12139V23H29V1.68293H23.4771V0H23.4747ZM27.5263 21.5468H6.58779V18.9039H24.2018L24.4221 18.6138C25.864 16.7084 26.853 14.5757 27.5287 12.5011V21.5468H27.5263ZM27.4993 3.13373C27.4944 5.32685 27.1713 12.3028 23.4575 17.4531H2.88384C6.67592 11.8554 6.63186 7.20564 6.59514 3.42389C6.59514 3.32717 6.59514 3.23045 6.59269 3.13373H10.0543V4.6885H11.5231V3.13373H16.0301V4.6885H17.4989V3.13373H22.0058V4.6885H23.4747V3.13373H27.4993Z" fill="black"/>
</svg>
