<svg width="45" height="45" viewBox="0 0 45 45" fill="none" xmlns="http://www.w3.org/2000/svg">
<path d="M22.5 45C10.094 45 0 34.9069 0 22.4979C0 10.0889 10.094 0 22.5 0C34.906 0 45 10.0931 45 22.4979C45 34.9027 34.906 45 22.5 45ZM22.5 2.52643C11.4879 2.52643 2.52667 11.4869 2.52667 22.4979C2.52667 33.5089 11.4879 42.4736 22.5 42.4736C33.5121 42.4736 42.4733 33.5131 42.4733 22.4979C42.4733 11.4826 33.5163 2.52643 22.5 2.52643Z" fill="white"/>
<path d="M18.6261 17.6636C18.6261 18.6657 17.8133 19.4784 16.8111 19.4784C15.8088 19.4784 14.9961 18.6657 14.9961 17.6636H18.6219H18.6261Z" fill="white"/>
<path d="M30.005 17.6636C30.005 18.6657 29.1922 19.4784 28.19 19.4784C27.1877 19.4784 26.375 18.6657 26.375 17.6636H30.0008H30.005Z" fill="white"/>
<path d="M34.6271 26.0728H10.3711V28.5992H34.6271V26.0728Z" fill="white"/>
</svg>
