<svg width="104" height="104" viewBox="0 0 104 104" fill="none" xmlns="http://www.w3.org/2000/svg">
<circle cx="51.8956" cy="52.337" r="51.6631" fill="#FFEC3E"/>
<path d="M39.1026 45.9715C42.1288 45.9715 44.5821 43.5254 44.5821 40.5081C44.5821 37.4907 42.1288 35.0447 39.1026 35.0447C36.0763 35.0447 33.623 37.4907 33.623 40.5081C33.623 43.5254 36.0763 45.9715 39.1026 45.9715Z" fill="#0075A6"/>
<path d="M65.0781 35.0447C62.0533 35.0447 59.5986 37.4921 59.5986 40.5081C59.5986 43.524 62.0533 45.9715 65.0781 45.9715C68.103 45.9715 70.5576 43.524 70.5576 40.5081C70.5576 37.4921 68.103 35.0447 65.0781 35.0447Z" fill="#0075A6"/>
<path d="M37.9567 52.1049C45.0326 52.1049 50.7942 46.3663 50.7942 39.3052C50.7942 32.244 45.0386 26.5054 37.9567 26.5054C30.8747 26.5054 25.1191 32.244 25.1191 39.3052V79.6553H28.7201V48.1734C31.0548 50.591 34.3317 52.1049 37.9567 52.1049ZM37.9567 30.0958C43.0521 30.0958 47.1932 34.2247 47.1932 39.3052C47.1932 44.3856 43.0521 48.5145 37.9567 48.5145C32.8613 48.5145 28.7201 44.3856 28.7201 39.3052C28.7201 34.2247 32.8613 30.0958 37.9567 30.0958Z" fill="#0075A6"/>
<path d="M66.2965 26.5051C59.2206 26.5051 53.459 32.2438 53.459 39.3049C53.459 46.366 59.2146 52.1047 66.2965 52.1047C73.3785 52.1047 79.1341 46.366 79.1341 39.3049C79.1341 32.2438 73.3785 26.5051 66.2965 26.5051ZM66.2965 48.5143C61.2071 48.5143 57.06 44.3853 57.06 39.3049C57.06 34.2245 61.2011 30.0955 66.2965 30.0955C71.392 30.0955 75.5331 34.2245 75.5331 39.3049C75.5331 44.3853 71.392 48.5143 66.2965 48.5143Z" fill="#0075A6"/>
<path d="M45.3506 58.8129H48.9516C48.9516 56.916 50.5 55.3721 52.4025 55.3721C54.3051 55.3721 55.8535 56.916 55.8535 58.8129H59.4545C59.4545 54.9353 56.2916 51.7817 52.4025 51.7817C48.5135 51.7817 45.3506 54.9353 45.3506 58.8129Z" fill="#0075A6"/>
<path d="M52.4028 78.105C43.3883 78.105 36.0483 70.7925 36.0483 61.7986H32.4473C32.4473 72.7673 41.4017 81.6954 52.4028 81.6954C63.4038 81.6954 72.3583 72.7673 72.3583 61.7986H68.7573C68.7573 70.7866 61.4233 78.105 52.4028 78.105Z" fill="#0075A6"/>
</svg>
