<svg width="12" height="11" viewBox="0 0 12 11" fill="none" xmlns="http://www.w3.org/2000/svg">
<path d="M4.75 1.97223H1H4.75Z" fill="#009BDC"/>
<path d="M4.75 1.97223H1" stroke="#009BDC" stroke-linecap="round"/>
<path d="M7.25 1.97223H11H7.25Z" fill="#009BDC"/>
<path d="M7.25 1.97223H11" stroke="#009BDC" stroke-linecap="round"/>
<path d="M8.5 5.375H1H8.5Z" fill="#009BDC"/>
<path d="M8.5 5.375H1" stroke="#009BDC" stroke-linecap="round"/>
<path d="M3.5 8.77777H11H3.5Z" fill="#009BDC"/>
<path d="M3.5 8.77777H11" stroke="#009BDC" stroke-linecap="round"/>
<path d="M3.5 8.77776C3.5 8.24081 2.94036 7.80554 2.25 7.80554C1.55964 7.80554 1 8.24081 1 8.77776C1 9.31472 1.55964 9.74999 2.25 9.74999C2.94036 9.74999 3.5 9.31472 3.5 8.77776Z" fill="#009BDC" stroke="#009BDC" stroke-linecap="round"/>
<path d="M11 5.37499C11 4.83803 10.4404 4.40277 9.75 4.40277C9.05963 4.40277 8.5 4.83803 8.5 5.37499C8.5 5.91195 9.05963 6.34722 9.75 6.34722C10.4404 6.34722 11 5.91195 11 5.37499Z" fill="#009BDC" stroke="#009BDC" stroke-linecap="round"/>
<path d="M7.25 1.97222C7.25 1.43528 6.69037 1 6 1C5.30963 1 4.75 1.43528 4.75 1.97222C4.75 2.50917 5.30963 2.94444 6 2.94444C6.69037 2.94444 7.25 2.50917 7.25 1.97222Z" fill="#009BDC" stroke="#009BDC" stroke-linecap="round"/>
</svg>
