<svg width="44" height="43" viewBox="0 0 44 43" fill="none" xmlns="http://www.w3.org/2000/svg">
<path d="M23.3138 37.5078C22.4358 37.043 21.3845 37.043 20.5065 37.5078L11.2526 42.4069C8.97478 43.6128 6.33699 41.5746 6.92925 39.0662L9.18655 29.5058C9.40574 28.5775 9.17041 27.6003 8.55265 26.8735L0.949515 17.9287C-0.633469 16.0663 0.55566 13.194 2.9918 12.9956L13.2346 12.1614C14.3423 12.0711 15.3094 11.3759 15.7478 10.3547L19.1534 2.42152C20.1932 -0.000561476 23.6271 -0.000559568 24.6669 2.42152L28.0725 10.3547C28.5109 11.3759 29.478 12.0711 30.5857 12.1614L40.8285 12.9956C43.2647 13.194 44.4538 16.0663 42.8708 17.9287L35.2677 26.8735C34.6499 27.6003 34.4146 28.5775 34.6338 29.5058L36.8911 39.0662C37.4833 41.5746 34.8455 43.6128 32.5677 42.4069L23.3138 37.5078Z" fill="#EAEAEA"/>
</svg>
