<svg width="39" height="39" viewBox="0 0 39 39" fill="none" xmlns="http://www.w3.org/2000/svg">
<path d="M20.9037 33.8019C20.0256 33.3371 18.9744 33.3371 18.0963 33.8019L10.3425 37.9069C8.06461 39.1129 5.42683 37.0746 6.0191 34.5662L7.9014 26.5941C8.12058 25.6658 7.88525 24.6885 7.2675 23.9618L0.789356 16.3404C-0.793628 14.4781 0.395502 11.6058 2.83164 11.4074L11.4495 10.7055C12.5572 10.6153 13.5242 9.92006 13.9626 8.89881L16.7433 2.42153C17.7831 -0.000555515 21.2169 -0.000560284 22.2567 2.42152L25.0374 8.89881C25.4758 9.92005 26.4428 10.6153 27.5505 10.7055L36.1684 11.4074C38.6045 11.6058 39.7936 14.4781 38.2106 16.3404L31.7325 23.9618C31.1147 24.6885 30.8794 25.6658 31.0986 26.5941L32.9809 34.5662C33.5732 37.0746 30.9354 39.1128 28.6575 37.9069L20.9037 33.8019Z" fill="#888888"/>
</svg>
