<svg width="81" height="27" viewBox="0 0 81 27" fill="none" xmlns="http://www.w3.org/2000/svg">
<g clip-path="url(#clip0_292_745)">
<path d="M7.04116 0C3.15876 0 0 3.1313 0 6.97995V27H3.1077V12.765C4.23091 13.5198 5.58498 13.9599 7.04116 13.9599C10.9236 13.9599 14.0823 10.8286 14.0823 6.97995C14.0823 3.1313 10.9236 0 7.04116 0ZM7.04116 10.8792C4.87243 10.8792 3.1077 9.12983 3.1077 6.97995C3.1077 4.83007 4.87243 3.08068 7.04116 3.08068C9.20989 3.08068 10.9746 4.83007 10.9746 6.97995C10.9746 9.12983 9.20989 10.8792 7.04116 10.8792Z" fill="black"/>
<path d="M36.7726 0C32.8902 0 29.7314 3.1313 29.7314 6.97995V27H32.8391V12.765C33.9624 13.5198 35.3164 13.9599 36.7726 13.9599C40.655 13.9599 43.8138 10.8286 43.8138 6.97995C43.8138 3.1313 40.655 0 36.7726 0ZM36.7726 10.8792C34.6039 10.8792 32.8391 9.12983 32.8391 6.97995C32.8391 4.83007 34.6039 3.08068 36.7726 3.08068C38.9413 3.08068 40.7061 4.83007 40.7061 6.97995C40.7061 9.12983 38.9413 10.8792 36.7726 10.8792Z" fill="black"/>
<path d="M21.9005 0C18.0181 0 14.8594 3.1313 14.8594 6.97995C14.8594 10.8286 18.0181 13.9599 21.9005 13.9599C25.7829 13.9599 28.9417 10.8286 28.9417 6.97995C28.9417 3.1313 25.7829 0 21.9005 0ZM21.9005 10.8792C19.7318 10.8792 17.9671 9.12983 17.9671 6.97995C17.9671 4.83007 19.7318 3.08068 21.9005 3.08068C24.0693 3.08068 25.834 4.83007 25.834 6.97995C25.834 9.12983 24.0693 10.8792 21.9005 10.8792Z" fill="black"/>
<path d="M48.4759 0.814209H45.3682V27H48.4759V0.814209Z" fill="black"/>
<path d="M58.6064 12.4306L64.46 27H61.1148L56.6197 15.8127L54.6907 19.0959V27H51.583V0.814209H54.6907V12.9719L61.6053 0.814209H65.2391L58.6064 12.4306Z" fill="black"/>
<path d="M77.3636 13.0137C79.4613 11.8056 80.8753 9.55232 80.8753 6.97995C80.8753 3.1313 77.7165 0 73.8341 0C69.9517 0 66.793 3.1313 66.793 6.97995V27H69.9007V12.765C71.0239 13.5198 72.378 13.9599 73.8341 13.9599C74.025 13.9599 74.2115 13.9489 74.398 13.9357L77.7676 27H80.9996L77.3636 13.0137ZM73.8341 10.8792C71.6654 10.8792 69.9007 9.12983 69.9007 6.97995C69.9007 4.83007 71.6654 3.08068 73.8341 3.08068C76.0029 3.08068 77.7676 4.83007 77.7676 6.97995C77.7676 9.12983 76.0029 10.8792 73.8341 10.8792Z" fill="black"/>
</g>
<defs>
<clipPath id="clip0_292_745">
<rect width="81" height="27" fill="white"/>
</clipPath>
</defs>
</svg>
